<svg xmlns="http://www.w3.org/2000/svg" width="2300" height="760" viewBox="0 0 2300 760" fill="none">
<g transform="translate(285,380)">
  <path d="M -90 -150 L -210 -30 L -90 90" stroke="#FFFFFF" stroke-width="72" stroke-linecap="square" stroke-linejoin="miter" fill="none"/>
  <path d="M -18 -80 L 54 -8 L -18 64" stroke="#FFFFFF" stroke-width="72" stroke-linecap="square" stroke-linejoin="miter" fill="none"/>
  <rect x="-58" y="-58" width="116" height="116" fill="#29B6FF" transform="rotate(45)"/>
</g>
<path d="M135 0H1083V253H440V1490H135Z" fill="#FFFFFF" transform="translate(560.00,505.00) scale(0.146484,-0.146484)"/>
<path d="M628 -22C964 -22 1175 210 1175 554C1175 900 964 1132 628 1132C291 1132 81 900 81 554C81 210 291 -22 628 -22ZM628 214C468 214 387 360 387 555C387 753 468 896 628 896C788 896 870 752 870 555C870 360 788 214 628 214Z" fill="#FFFFFF" transform="translate(719.63,505.00) scale(0.146484,-0.146484)"/>
<path d="M625 -442C940 -442 1166 -294 1166 9V1118H871V930H858C817 1019 725 1132 537 1132C289 1132 81 939 81 561C81 191 284 16 536 16C717 16 805 108 846 198H869V-8C869 -155 776 -224 623 -224C477 -224 408 -159 380 -96L122 -168C171 -328 345 -442 625 -442ZM630 244C474 244 389 368 389 563C389 755 472 892 630 892C784 892 870 761 870 563C870 363 783 244 630 244Z" fill="#FFFFFF" transform="translate(893.61,505.00) scale(0.146484,-0.146484)"/>
<path d="M128 0H428V1118H128ZM278 1264C368 1264 443 1332 443 1418C443 1503 368 1572 278 1572C187 1572 113 1503 113 1418C113 1332 187 1264 278 1264Z" fill="#FFFFFF" transform="translate(1073.16,505.00) scale(0.146484,-0.146484)"/>
<path d="M572 -22C865 -22 1072 125 1072 345C1072 504 968 603 752 647L551 687C445 709 407 748 407 804C407 871 483 917 581 917C690 917 753 863 777 787L1043 834C1001 1016 842 1132 577 1132C294 1132 107 1000 107 785C107 618 213 512 429 468L622 428C720 408 766 372 766 313C766 246 695 198 581 198C458 198 386 249 357 354L78 306C117 98 302 -22 572 -22Z" fill="#29B6FF" transform="translate(1149.46,505.00) scale(0.146484,-0.146484)"/>
<path d="M128 0H428V1118H128Z" fill="#29B6FF" transform="translate(1307.48,505.00) scale(0.146484,-0.146484)"/>
<path d="M625 -442C940 -442 1166 -294 1166 9V1118H871V930H858C817 1019 725 1132 537 1132C289 1132 81 939 81 561C81 191 284 16 536 16C717 16 805 108 846 198H869V-8C869 -155 776 -224 623 -224C477 -224 408 -159 380 -96L122 -168C171 -328 345 -442 625 -442ZM630 244C474 244 389 368 389 563C389 755 472 892 630 892C784 892 870 761 870 563C870 363 783 244 630 244Z" fill="#29B6FF" transform="translate(1378.78,505.00) scale(0.146484,-0.146484)"/>
<path d="M428 647C428 795 517 881 645 881C771 881 847 798 847 659V0H1148V711C1148 973 995 1132 763 1132C597 1132 487 1050 422 904V1490H128V0H428Z" fill="#29B6FF" transform="translate(1558.33,505.00) scale(0.146484,-0.146484)"/>
<path d="M683 1118H474V1384H174V1118H20V889H174V301C174 96 296 -16 520 -16C580 -16 647 -9 714 11L671 236C649 230 599 223 576 223C503 223 474 256 474 327V889H683Z" fill="#29B6FF" transform="translate(1735.10,505.00) scale(0.146484,-0.146484)"/>
<rect x="1332.76" y="209.00" width="34" height="34" fill="#29B6FF" transform="rotate(45 1349.76 226.00)"/>
</svg>