<svg xmlns="http://www.w3.org/2000/svg" viewBox="0 0 147.0 32.9" width="735" height="164" fill="none" role="img" aria-label="Logisight">
  <defs>
    <linearGradient id="mk" x1="0" y1="0" x2="0" y2="1">
      <stop offset="0" stop-color="#2dd4bf"/>
      <stop offset="1" stop-color="#0ea5a0"/>
    </linearGradient>
    <linearGradient id="sg" x1="0" y1="0" x2="1" y2="0">
      <stop offset="0.35" stop-color="#ffffff"/>
      <stop offset="1" stop-color="#2dd4bf"/>
    </linearGradient>
  </defs>
  <!-- mark -->
  <rect x="0" y="0" width="9.0" height="19.8" rx="2" fill="url(#mk)" transform="translate(6.0,4.26) skewX(-12)"/>
  <!-- wordmark (outlined Pretendard ExtraBold) -->
  <g transform="translate(19.5,24.05) scale(0.01367,-0.01367)">
    <path fill="#ffffff" d="M110 0H1058V278H450V1448H110ZM1738 -20C2078 -20 2284 206 2284 540C2284 874 2078 1100 1738 1100C1398 1100 1192 874 1192 540C1192 206 1398 -20 1738 -20ZM1740 234C1608 234 1536 360 1536 542C1536 724 1608 850 1740 850C1868 850 1940 724 1940 542C1940 360 1868 234 1740 234ZM2962 -430C3286 -430 3508 -282 3508 -6V1086H3172V900H3162C3122 998 3028 1100 2854 1100C2626 1100 2420 926 2420 546C2420 180 2616 14 2856 14C3018 14 3122 92 3164 190H3176V-2C3176 -144 3092 -194 2970 -194C2864 -194 2790 -160 2776 -82H2448C2464 -288 2650 -430 2962 -430ZM2970 262C2840 262 2766 368 2766 546C2766 720 2838 836 2970 836C3102 836 3176 724 3176 546C3176 368 3100 262 2970 262ZM3724 0H4062V1086H3724ZM3894 1216C3990 1216 4070 1288 4070 1378C4070 1468 3990 1540 3894 1540C3798 1540 3720 1468 3720 1378C3720 1288 3798 1216 3894 1216Z"/>
    <path fill="url(#sg)" d="M4904 750H5218C5204 966 5026 1100 4734 1100C4440 1100 4256 972 4258 756C4256 590 4364 482 4578 442L4764 408C4858 388 4900 358 4902 310C4900 250 4838 214 4746 214C4646 214 4578 256 4566 334H4230C4252 118 4434 -20 4744 -20C5038 -20 5242 124 5244 346C5242 504 5138 598 4922 640L4716 680C4622 698 4590 732 4592 774C4590 830 4656 868 4740 868C4830 868 4894 822 4904 750Z"/>
    <path fill="#2dd4bf" d="M5410 0H5748V1086H5410ZM5580 1216C5676 1216 5756 1288 5756 1378C5756 1468 5676 1540 5580 1540C5484 1540 5406 1468 5406 1378C5406 1288 5484 1216 5580 1216ZM6468 -430C6792 -430 7014 -282 7014 -6V1086H6678V900H6668C6628 998 6534 1100 6360 1100C6132 1100 5926 926 5926 546C5926 180 6122 14 6362 14C6524 14 6628 92 6670 190H6682V-2C6682 -144 6598 -194 6476 -194C6370 -194 6296 -160 6282 -82H5954C5970 -288 6156 -430 6468 -430ZM6476 262C6346 262 6272 368 6272 546C6272 720 6344 836 6476 836C6608 836 6682 724 6682 546C6682 368 6606 262 6476 262ZM7568 622C7568 748 7644 824 7756 824C7870 824 7936 750 7934 628V0H8272V692C8272 940 8122 1100 7894 1100C7732 1100 7618 1020 7568 888H7556V1448H7230V0H7568ZM9090 1086H8892V1346H8556V1086H8410V838H8556V302C8554 82 8698 -16 8936 -16C9016 -16 9072 -8 9104 -4V254C9066 252 9012 248 8984 250C8926 252 8892 272 8892 340V838H9090Z"/>
  </g>
</svg>
